# Blender 5.2.2 LTS
# www.blender.org
mtllib tree.mtl
o Cylinder
v -0.000000 0.568963 -0.747630
v -0.000000 1.564811 -0.917028
v 0.667701 0.501373 -0.667701
v 0.823499 1.599971 -0.823499
v 0.852318 0.532980 -0.000000
v 1.111399 1.592415 -0.000000
v 0.609303 0.529760 0.609303
v 0.669928 1.569127 0.669928
v -0.000000 0.498282 0.953263
v 0.000000 1.565017 0.918481
v -0.621205 0.523974 0.621205
v -0.853998 1.606096 0.853998
v -0.839639 0.537338 0.000000
v -1.042233 1.582592 0.000000
v -0.630502 0.519455 -0.630502
v -0.787850 1.592811 -0.787850
v 0.000000 2.201636 -0.459753
v 0.458622 2.368154 -0.458622
v 0.653162 2.372186 0.000000
v 0.380734 2.271022 0.380734
v 0.000000 2.350249 0.628284
v -0.375803 2.264873 0.375803
v -0.631743 2.353299 0.000000
v -0.480787 2.395795 -0.480787
v 0.000000 2.651421 0.000000
v -0.000000 -0.128955 -0.466300
v 0.289121 -0.070811 -0.289121
v 0.536828 -0.200369 0.000000
v 0.340946 -0.145024 0.340946
v -0.000000 -0.068175 0.406275
v -0.397106 -0.225445 0.397106
v -0.483894 -0.146770 0.000000
v -0.317535 -0.111500 -0.317535
v -0.000000 -0.312606 0.000000
vn 0.1106 -0.1605 -0.9808
vn 0.9348 -0.2009 -0.2930
vn 0.8735 -0.1465 0.4643
vn 0.4207 -0.0232 0.9069
vn -0.2627 -0.1167 0.9578
vn -0.9398 -0.2209 0.2606
vn -0.7598 0.5743 0.3047
vn -0.9350 -0.1815 -0.3046
vn -0.1663 -0.1661 -0.9720
vn 0.7584 -0.5179 -0.3957
vn -0.4438 0.8081 0.3874
vn 0.4147 0.3992 0.8177
vn -0.8596 0.4420 -0.2563
vn 0.8098 0.5021 -0.3033
vn -0.2312 0.5156 0.8250
vn 0.0066 0.4678 -0.8838
vn -0.0151 0.5021 -0.8647
vn 0.7075 0.4614 0.5354
vn 0.3480 0.8139 0.4652
vn -0.2497 0.6922 -0.6772
vn 0.3041 0.6810 -0.6662
vn -0.3812 0.8078 0.4497
vn 0.4244 0.8165 0.3914
vn 0.3872 0.9058 -0.1722
vn -0.4261 0.9030 -0.0540
vn -0.3220 -0.9396 -0.1158
vn -0.2100 -0.5207 0.8275
vn -0.2284 -0.4418 -0.8676
vn 0.2200 -0.5006 -0.8372
vn 0.8171 -0.4150 0.4002
vn -0.8890 -0.3956 0.2307
vn 0.3025 -0.5681 0.7653
vn -0.8078 -0.4891 -0.3289
vn -0.0939 -0.8531 0.5132
vn 0.1744 -0.8342 -0.5232
vn -0.3126 -0.9121 -0.2651
vn 0.3112 -0.8143 0.4899
vn 0.1972 -0.9434 0.2665
vn 0.3807 -0.8604 -0.3389
vn -0.2175 -0.9082 -0.3577
vt 1.000000 0.500000
vt 1.000000 1.000000
vt 0.875000 1.000000
vt 0.875000 0.500000
vt 0.750000 1.000000
vt 0.750000 0.500000
vt 0.625000 1.000000
vt 0.625000 0.500000
vt 0.500000 1.000000
vt 0.500000 0.500000
vt 0.375000 1.000000
vt 0.375000 0.500000
vt 0.250000 1.000000
vt 0.250000 0.500000
vt 0.125000 1.000000
vt 0.125000 0.500000
vt 0.000000 1.000000
vt 0.000000 0.500000
s 0
f 1/1/1 2/2/1 4/3/1 3/4/1
f 3/4/2 4/3/2 6/5/2 5/6/2
f 5/6/3 6/5/3 8/7/3 7/8/3
f 7/8/4 8/7/4 10/9/4 9/10/4
f 9/10/5 10/9/5 12/11/5 11/12/5
f 11/12/6 12/11/6 14/13/6 13/14/6
f 14/13/7 12/11/7 22/11/7 23/13/7
f 13/14/8 14/13/8 16/15/8 15/16/8
f 15/16/9 16/15/9 2/17/9 1/18/9
f 3/4/10 5/6/10 28/6/10 27/4/10
f 22/11/11 21/9/11 25/11/11
f 10/9/12 8/7/12 20/7/12 21/9/12
f 16/15/13 14/13/13 23/13/13 24/15/13
f 6/5/14 4/3/14 18/3/14 19/5/14
f 12/11/15 10/9/15 21/9/15 22/11/15
f 2/17/16 16/15/16 24/15/16 17/17/16
f 4/3/17 2/2/17 17/2/17 18/3/17
f 8/7/18 6/5/18 19/5/18 20/7/18
f 20/7/19 19/5/19 25/7/19
f 18/3/20 17/2/20 25/3/20
f 17/17/21 24/15/21 25/17/21
f 23/13/22 22/11/22 25/13/22
f 21/9/23 20/7/23 25/9/23
f 19/5/24 18/3/24 25/5/24
f 24/15/25 23/13/25 25/15/25
f 31/12/26 32/14/26 34/12/26
f 9/10/27 11/12/27 31/12/27 30/10/27
f 15/16/28 1/18/28 26/18/28 33/16/28
f 1/1/29 3/4/29 27/4/29 26/1/29
f 5/6/30 7/8/30 29/8/30 28/6/30
f 11/12/31 13/14/31 32/14/31 31/12/31
f 7/8/32 9/10/32 30/10/32 29/8/32
f 13/14/33 15/16/33 33/16/33 32/14/33
f 29/8/34 30/10/34 34/8/34
f 27/4/35 28/6/35 34/4/35
f 32/14/36 33/16/36 34/14/36
f 30/10/37 31/12/37 34/10/37
f 28/6/38 29/8/38 34/6/38
f 26/1/39 27/4/39 34/1/39
f 33/16/40 26/18/40 34/16/40
